<svg width="18" height="19" viewBox="0 0 18 19" fill="none" xmlns="http://www.w3.org/2000/svg">
<path fill-rule="evenodd" clip-rule="evenodd" d="M3 9.5C3 9.08579 3.33579 8.75 3.75 8.75H14.25C14.6642 8.75 15 9.08579 15 9.5C15 9.91421 14.6642 10.25 14.25 10.25H3.75C3.33579 10.25 3 9.91421 3 9.5Z" fill="black"/>
<path fill-rule="evenodd" clip-rule="evenodd" d="M9.53033 3.71967C9.82322 4.01256 9.82322 4.48744 9.53033 4.78033L4.81066 9.5L9.53033 14.2197C9.82322 14.5126 9.82322 14.9874 9.53033 15.2803C9.23744 15.5732 8.76256 15.5732 8.46967 15.2803L3.21967 10.0303C2.92678 9.73744 2.92678 9.26256 3.21967 8.96967L8.46967 3.71967C8.76256 3.42678 9.23744 3.42678 9.53033 3.71967Z" fill="black"/>
</svg>
