<svg version="1.1" xmlns="http://www.w3.org/2000/svg" xmlns:xlink="http://www.w3.org/1999/xlink" viewBox="0 0 172 172">
  <g fill="none" fill-rule="nonzero" stroke="none" stroke-width="1" stroke-linecap="butt" stroke-linejoin="miter" stroke-miterlimit="10" stroke-dasharray="" stroke-dashoffset="0" font-family="none" font-weight="none" font-size="none" text-anchor="none" style="mix-blend-mode: normal">
    <path d="M0,172v-172h172v172z" fill="none"></path>
    <g fill="currentColor">
      <path d="M86,11.46667c-3.16643,0 -5.73333,2.5669 -5.73333,5.73333c0,3.16643 2.5669,5.73333 5.73333,5.73333c3.16643,0 5.73333,-2.5669 5.73333,-5.73333c0,-3.16643 -2.5669,-5.73333 -5.73333,-5.73333zM57.33333,17.2c-3.16643,0 -5.73333,2.5669 -5.73333,5.73333c0,3.16643 2.5669,5.73333 5.73333,5.73333c3.16643,0 5.73333,-2.5669 5.73333,-5.73333c0,-3.16643 -2.5669,-5.73333 -5.73333,-5.73333zM114.66667,17.2c-3.16643,0 -5.73333,2.5669 -5.73333,5.73333c0,3.16643 2.5669,5.73333 5.73333,5.73333c3.16643,0 5.73333,-2.5669 5.73333,-5.73333c0,-3.16643 -2.5669,-5.73333 -5.73333,-5.73333zM28.66667,40.13333c-6.33533,0 -11.46667,5.13133 -11.46667,11.46667v20.55938l-9.78698,9.78698c-2.24173,2.24173 -2.24173,5.86556 0,8.10729l9.78698,9.78698v20.55938c0,6.33533 5.13133,11.46667 11.46667,11.46667h114.66667c6.33533,0 11.46667,-5.13133 11.46667,-11.46667v-68.8c0,-6.33533 -5.13707,-11.46667 -11.46667,-11.46667zM45.86667,68.8h80.26667c3.17053,0 5.73333,2.56853 5.73333,5.73333c0,3.1648 -2.5628,5.73333 -5.73333,5.73333h-80.26667c-3.17053,0 -5.73333,-2.56853 -5.73333,-5.73333c0,-3.1648 2.5628,-5.73333 5.73333,-5.73333zM45.86667,91.73333h45.86667c3.17053,0 5.73333,2.56853 5.73333,5.73333c0,3.1648 -2.5628,5.73333 -5.73333,5.73333h-45.86667c-3.17053,0 -5.73333,-2.56853 -5.73333,-5.73333c0,-3.1648 2.5628,-5.73333 5.73333,-5.73333zM57.33333,143.33333c-3.16643,0 -5.73333,2.5669 -5.73333,5.73333c0,3.16643 2.5669,5.73333 5.73333,5.73333c3.16643,0 5.73333,-2.5669 5.73333,-5.73333c0,-3.16643 -2.5669,-5.73333 -5.73333,-5.73333zM114.66667,143.33333c-3.16643,0 -5.73333,2.5669 -5.73333,5.73333c0,3.16643 2.5669,5.73333 5.73333,5.73333c3.16643,0 5.73333,-2.5669 5.73333,-5.73333c0,-3.16643 -2.5669,-5.73333 -5.73333,-5.73333zM86,149.06667c-3.16643,0 -5.73333,2.5669 -5.73333,5.73333c0,3.16643 2.5669,5.73333 5.73333,5.73333c3.16643,0 5.73333,-2.5669 5.73333,-5.73333c0,-3.16643 -2.5669,-5.73333 -5.73333,-5.73333z"></path>
    </g>
  </g>
</svg>