<svg xmlns="http://www.w3.org/2000/svg" xmlns:xlink="http://www.w3.org/1999/xlink" viewBox="0 0 30 30" width="30px" height="30px">
  <g id="surface334835">
    <path style=" stroke:none;fill-rule:nonzero;fill:currentColor;fill-opacity:1;" d="M 15 3 C 8.371094 3 3 8.371094 3 15 C 3 21.628906 8.371094 27 15 27 C 21.628906 27 27 21.628906 27 15 C 27 8.371094 21.628906 3 15 3 Z M 16.414062 15 C 16.414062 15 19.554688 18.140625 19.707031 18.292969 C 20.097656 18.683594 20.097656 19.316406 19.707031 19.707031 C 19.316406 20.097656 18.683594 20.097656 18.292969 19.707031 C 18.140625 19.554688 15 16.414062 15 16.414062 C 15 16.414062 11.859375 19.554688 11.707031 19.707031 C 11.316406 20.097656 10.683594 20.097656 10.292969 19.707031 C 9.902344 19.316406 9.902344 18.683594 10.292969 18.292969 C 10.445312 18.140625 13.585938 15 13.585938 15 C 13.585938 15 10.445312 11.859375 10.292969 11.707031 C 9.902344 11.316406 9.902344 10.683594 10.292969 10.292969 C 10.683594 9.902344 11.316406 9.902344 11.707031 10.292969 C 11.859375 10.445312 15 13.585938 15 13.585938 C 15 13.585938 18.140625 10.445312 18.292969 10.292969 C 18.683594 9.902344 19.316406 9.902344 19.707031 10.292969 C 20.097656 10.683594 20.097656 11.316406 19.707031 11.707031 C 19.554688 11.859375 16.414062 15 16.414062 15 Z M 16.414062 15 " />
  </g>
</svg>