<svg width="12" height="11" viewBox="0 0 12 11" fill="none" xmlns="http://www.w3.org/2000/svg">
<path d="M11.55 4.3H9V1.15C9 0.901375 8.79862 0.7 8.55 0.7H5.85C5.60138 0.7 5.4 0.901375 5.4 1.15V2.5H4.2V1C4.2 0.83425 4.06575 0.7 3.9 0.7H3.6C3.43425 0.7 3.3 0.83425 3.3 1V2.5H2.1V1C2.1 0.83425 1.96575 0.7 1.8 0.7H1.5C1.33425 0.7 1.2 0.83425 1.2 1V2.5H0.45C0.201375 2.5 0 2.70137 0 2.95V9.7C0 10.0313 0.268688 10.3 0.6 10.3H11.4C11.7313 10.3 12 10.0313 12 9.7V4.75C12 4.50137 11.7984 4.3 11.55 4.3ZM2.4 8.275C2.4 8.39931 2.29931 8.5 2.175 8.5H1.425C1.30069 8.5 1.2 8.39931 1.2 8.275V7.525C1.2 7.40069 1.30069 7.3 1.425 7.3H2.175C2.29931 7.3 2.4 7.40069 2.4 7.525V8.275ZM2.4 6.475C2.4 6.59931 2.29931 6.7 2.175 6.7H1.425C1.30069 6.7 1.2 6.59931 1.2 6.475V5.725C1.2 5.60069 1.30069 5.5 1.425 5.5H2.175C2.29931 5.5 2.4 5.60069 2.4 5.725V6.475ZM2.4 4.675C2.4 4.79931 2.29931 4.9 2.175 4.9H1.425C1.30069 4.9 1.2 4.79931 1.2 4.675V3.925C1.2 3.80069 1.30069 3.7 1.425 3.7H2.175C2.29931 3.7 2.4 3.80069 2.4 3.925V4.675ZM4.8 8.275C4.8 8.39931 4.69931 8.5 4.575 8.5H3.825C3.70069 8.5 3.6 8.39931 3.6 8.275V7.525C3.6 7.40069 3.70069 7.3 3.825 7.3H4.575C4.69931 7.3 4.8 7.40069 4.8 7.525V8.275ZM4.8 6.475C4.8 6.59931 4.69931 6.7 4.575 6.7H3.825C3.70069 6.7 3.6 6.59931 3.6 6.475V5.725C3.6 5.60069 3.70069 5.5 3.825 5.5H4.575C4.69931 5.5 4.8 5.60069 4.8 5.725V6.475ZM4.8 4.675C4.8 4.79931 4.69931 4.9 4.575 4.9H3.825C3.70069 4.9 3.6 4.79931 3.6 4.675V3.925C3.6 3.80069 3.70069 3.7 3.825 3.7H4.575C4.69931 3.7 4.8 3.80069 4.8 3.925V4.675ZM7.8 6.475C7.8 6.59931 7.69931 6.7 7.575 6.7H6.825C6.70069 6.7 6.6 6.59931 6.6 6.475V5.725C6.6 5.60069 6.70069 5.5 6.825 5.5H7.575C7.69931 5.5 7.8 5.60069 7.8 5.725V6.475ZM7.8 4.675C7.8 4.79931 7.69931 4.9 7.575 4.9H6.825C6.70069 4.9 6.6 4.79931 6.6 4.675V3.925C6.6 3.80069 6.70069 3.7 6.825 3.7H7.575C7.69931 3.7 7.8 3.80069 7.8 3.925V4.675ZM7.8 2.875C7.8 2.99931 7.69931 3.1 7.575 3.1H6.825C6.70069 3.1 6.6 2.99931 6.6 2.875V2.125C6.6 2.00069 6.70069 1.9 6.825 1.9H7.575C7.69931 1.9 7.8 2.00069 7.8 2.125V2.875ZM10.8 8.275C10.8 8.39931 10.6993 8.5 10.575 8.5H9.825C9.70069 8.5 9.6 8.39931 9.6 8.275V7.525C9.6 7.40069 9.70069 7.3 9.825 7.3H10.575C10.6993 7.3 10.8 7.40069 10.8 7.525V8.275ZM10.8 6.475C10.8 6.59931 10.6993 6.7 10.575 6.7H9.825C9.70069 6.7 9.6 6.59931 9.6 6.475V5.725C9.6 5.60069 9.70069 5.5 9.825 5.5H10.575C10.6993 5.5 10.8 5.60069 10.8 5.725V6.475Z" fill="black"/>
</svg>
