<svg width="226" height="226" viewBox="0 0 226 226" fill="none" xmlns="http://www.w3.org/2000/svg">
<path fill-rule="evenodd" clip-rule="evenodd" d="M113 207.167C165.007 207.167 207.167 165.007 207.167 113C207.167 60.9933 165.007 18.8335 113 18.8335C60.9932 18.8335 18.8334 60.9933 18.8334 113C18.8334 165.007 60.9932 207.167 113 207.167ZM164.448 51.792H122.417V66.7645C149.127 71.2562 169.5 94.4307 169.5 122.417C169.5 153.619 144.202 178.917 113 178.917C81.7979 178.917 56.5 153.619 56.5 122.417C56.5 94.4307 76.873 71.2562 103.583 66.7645V51.792H61.5521C44.0748 66.4396 32.9584 88.3993 32.9584 113C32.9584 157.207 68.7935 193.042 113 193.042C157.207 193.042 193.042 157.207 193.042 113C193.042 88.3993 181.925 66.4396 164.448 51.792ZM113 98.8753C118.193 98.8753 122.417 94.652 122.417 89.4587C122.417 84.2654 118.193 80.042 113 80.042C107.807 80.042 103.583 84.2654 103.583 89.4587C103.583 94.652 107.807 98.8753 113 98.8753ZM131.833 134.188V122.417C131.833 112.016 123.401 103.583 113 103.583C102.599 103.583 94.1667 112.016 94.1667 122.417V134.188C94.1667 137.196 96.0548 139.743 98.7008 140.765L94.3551 157.423C93.5358 160.568 95.4191 163.784 98.5643 164.603C101.705 165.418 104.925 163.535 105.745 160.39L110.74 141.25H115.26L120.256 160.39C120.943 163.04 123.33 164.792 125.943 164.792C126.433 164.792 126.937 164.731 127.431 164.603C130.576 163.78 132.46 160.568 131.64 157.423L127.295 140.765C129.945 139.743 131.833 137.196 131.833 134.188Z" fill="black"/>
</svg>
