<svg version="1.1" xmlns="http://www.w3.org/2000/svg" xmlns:xlink="http://www.w3.org/1999/xlink" viewBox="0 0 172 172">
  <g fill="none" fill-rule="nonzero" stroke="none" stroke-width="1" stroke-linecap="butt" stroke-linejoin="miter" stroke-miterlimit="10" stroke-dasharray="" stroke-dashoffset="0" font-family="none" font-weight="none" font-size="none" text-anchor="none" style="mix-blend-mode: normal">
    <path d="M0,172v-172h172v172z" fill="none"></path>
    <g fill="currentColor">
      <path d="M40.13333,11.44427c-6.30667,0 -11.46667,5.16 -11.46667,11.46667v31.88047c0.11467,0 0.17648,-0.06584 0.29115,-0.12318c1.08933,-5.04533 5.55238,-8.76797 10.88438,-8.76797h0.58229c5.332,0 9.79504,3.72264 10.88438,8.76797c6.99467,3.89867 11.75781,11.2987 11.75781,19.8987v75.04844c0,3.38267 -1.032,6.70755 -2.86667,9.57422l-0.91823,1.32136h72.58489c6.30667,0 11.46667,-5.10267 11.46667,-11.46667v-94.6c0,-1.49067 -0.56796,-2.91952 -1.65729,-4.00885l-37.26667,-37.26667c-1.08934,-1.08933 -2.52804,-1.72448 -4.07604,-1.72448zM97.46667,22.39583l34.97109,34.9151h-29.23776c-3.15333,0 -5.73333,-2.52267 -5.73333,-5.73333zM40.13333,57.36692c-2.35067,0 -4.41422,1.42975 -5.27422,3.49375v0.06719c-0.28667,0.688 -0.45911,1.42706 -0.45911,2.17239c0,0.172 -0.00134,0.34311 0.05599,0.51511c-2.46533,0.80267 -4.41422,2.75289 -5.27422,5.21823h-0.5151c-5.73333,0 -7.96665,1.20311 -10.14531,3.38177c-0.45867,0.45867 -0.86538,0.97333 -1.20938,1.48933c-1.43333,1.94933 -2.29557,4.30806 -2.29557,6.83073v1.36614c0,3.03867 0.69203,6.71696 1.26537,10.61563c0.344,2.29333 0.6889,4.58353 0.91823,6.81953c0.172,1.60533 0.29115,3.21514 0.29115,4.59114c-0.05733,1.892 1.48977,3.49375 3.38177,3.49375c1.892,0.05733 3.49241,-1.43244 3.54974,-3.38177v-0.11198c0,-4.07067 -0.69203,-8.43875 -1.26536,-12.45208c-0.63067,-4.01333 -1.19818,-7.67236 -1.19818,-9.50703v-1.43333c0,-2.752 2.17508,-4.93649 4.92708,-5.96849h1.78047v34.4h22.93333v-37.26667c0,-3.784 -2.40666,-6.99556 -5.78932,-8.08489c0.05733,-0.172 0.05599,-0.34311 0.05599,-0.51511c0,-1.43333 -0.516,-2.75289 -1.43333,-3.78489c-1.032,-1.204 -2.58,-1.94844 -4.3,-1.94844zM80.26667,85.97761h34.4c3.15333,0 5.73333,2.58 5.73333,5.73333c0,3.21067 -2.58,5.73333 -5.73333,5.73333h-34.4c-3.15333,0 -5.73333,-2.52267 -5.73333,-5.73333c0,-3.15333 2.58,-5.73333 5.73333,-5.73333zM80.26667,108.91094h22.93333c3.15333,0 5.73333,2.58 5.73333,5.73333c0,3.21067 -2.58,5.73333 -5.73333,5.73333h-22.93333c-3.15333,0 -5.73333,-2.52267 -5.73333,-5.73333c0,-3.15333 2.58,-5.73333 5.73333,-5.73333zM28.66667,120.43359v28.66667c0,2.408 0.22933,2.34798 1.43333,4.41198l4.07604,7.05468l0.27995,0.51511c0.344,0.516 0.69472,1.03066 1.15339,1.48933c0.40133,0.40133 0.91733,0.75339 1.43333,1.09739v3.7737c-0.05733,1.892 1.48977,3.50495 3.38177,3.50495c1.892,0.05733 3.49375,-1.43244 3.49375,-3.38177v-0.12317v-3.7737c0.57333,-0.344 1.032,-0.69606 1.43333,-1.09739c0.57333,-0.57333 1.03334,-1.20311 1.37734,-1.94844l0.05599,-0.05599l4.06484,-6.9987c0.45867,-0.86 0.69293,-1.31061 0.75026,-1.76927c0.11467,-0.688 0,-1.26536 0,-2.6987v-28.66667z"></path>
    </g>
  </g>
</svg>