<?xml version="1.0" encoding="UTF-8"?>
<svg xmlns="http://www.w3.org/2000/svg" xmlns:xlink="http://www.w3.org/1999/xlink" viewBox="0 0 80 80" width="80px" height="80px">
<g id="surface441237">
<path style=" stroke:none;fill-rule:nonzero;fill:rgb(0%,0%,0%);fill-opacity:1;" d="M 27.664062 69.035156 L 2.632812 44 C 1.34375 42.710938 1.34375 40.621094 2.632812 39.332031 L 9.332031 32.632812 C 10.621094 31.34375 12.710938 31.34375 14 32.632812 L 39.035156 57.664062 C 40.324219 58.953125 40.324219 61.046875 39.035156 62.335938 L 32.335938 69.035156 C 31.046875 70.320312 28.953125 70.320312 27.664062 69.035156 Z M 27.664062 69.035156 "/>
<path style=" stroke:none;fill-rule:nonzero;fill:rgb(0%,0%,0%);fill-opacity:1;" d="M 20.964844 57.664062 L 66 12.632812 C 67.289062 11.34375 69.378906 11.34375 70.667969 12.632812 L 77.367188 19.332031 C 78.65625 20.621094 78.65625 22.710938 77.367188 24 L 32.335938 69.035156 C 31.046875 70.324219 28.953125 70.324219 27.664062 69.035156 L 20.964844 62.335938 C 19.679688 61.046875 19.679688 58.953125 20.964844 57.664062 Z M 20.964844 57.664062 "/>
</g>
</svg>
