<svg width="12" height="13" viewBox="0 0 12 13" fill="none" xmlns="http://www.w3.org/2000/svg">
<path d="M11.2781 4.40469C11.3554 4.60625 11.2898 4.83359 11.1304 4.98125L10.1156 5.90469C10.1414 6.09922 10.1554 6.29844 10.1554 6.5C10.1554 6.70156 10.1414 6.90078 10.1156 7.09531L11.1304 8.01875C11.2898 8.16641 11.3554 8.39375 11.2781 8.59531C11.175 8.87422 11.0508 9.14375 10.9101 9.39922L10.8 9.58906C10.6453 9.84687 10.4718 10.0906 10.282 10.3227C10.1414 10.4891 9.91403 10.5477 9.70778 10.482L8.40231 10.0648C8.08825 10.3063 7.72028 10.5078 7.37106 10.6625L7.07809 12.0008C7.03121 12.2117 6.86715 12.3617 6.65153 12.418C6.32809 12.4719 5.99528 12.5 5.63434 12.5C5.31559 12.5 4.98277 12.4719 4.65934 12.418C4.44371 12.3617 4.27965 12.2117 4.23277 12.0008L3.9398 10.6625C3.56949 10.5078 3.22262 10.3063 2.90855 10.0648L1.60402 10.482C1.39683 10.5477 1.16832 10.4891 1.02957 10.3227C0.839487 10.0906 0.66605 9.84687 0.511362 9.58906L0.401674 9.39922C0.259408 9.14375 0.135658 8.87422 0.03183 8.59531C-0.0441076 8.39375 0.0198769 8.16641 0.180658 8.01875L1.19457 7.09531C1.16878 6.90078 1.15543 6.70156 1.15543 6.5C1.15543 6.29844 1.16878 6.09922 1.19457 5.90469L0.180658 4.98125C0.0198769 4.83359 -0.0441076 4.60859 0.03183 4.40469C0.135658 4.12578 0.259643 3.85625 0.401674 3.60078L0.511128 3.41094C0.66605 3.15312 0.839487 2.90937 1.02957 2.67852C1.16832 2.51094 1.39683 2.45281 1.60402 2.51891L2.90855 2.93516C3.22262 2.69281 3.56949 2.49125 3.9398 2.3382L4.23277 0.999922C4.27965 0.787109 4.44371 0.618125 4.65934 0.582266C4.98277 0.528148 5.31559 0.5 5.65543 0.5C5.99528 0.5 6.32809 0.528148 6.65153 0.582266C6.86715 0.618125 7.03121 0.787109 7.07809 0.999922L7.37106 2.3382C7.72028 2.49125 8.08825 2.69281 8.40231 2.93516L9.70778 2.51891C9.91403 2.45281 10.1414 2.51094 10.282 2.67852C10.4718 2.90937 10.6453 3.15312 10.8 3.41094L10.9101 3.60078C11.0508 3.85625 11.175 4.12578 11.2781 4.40469ZM5.65543 8.375C6.69137 8.375 7.53043 7.53594 7.53043 6.47891C7.53043 5.46406 6.69137 4.60391 5.65543 4.60391C4.61949 4.60391 3.78043 5.46406 3.78043 6.47891C3.78043 7.53594 4.61949 8.375 5.65543 8.375Z" fill="black"/>
</svg>
