<svg width="12" height="11" viewBox="0 0 12 11" fill="none" xmlns="http://www.w3.org/2000/svg">
<path d="M5.8409 3.25507L2.00016 6.41837V9.83248C2.00016 9.92088 2.03527 10.0057 2.09778 10.0682C2.16029 10.1307 2.24507 10.1658 2.33347 10.1658L4.66787 10.1597C4.75598 10.1593 4.84033 10.124 4.90248 10.0615C4.96462 9.99907 4.99951 9.91455 4.99951 9.82644V7.83263C4.99951 7.74423 5.03463 7.65945 5.09713 7.59695C5.15964 7.53444 5.24442 7.49932 5.33282 7.49932H6.66605C6.75445 7.49932 6.83923 7.53444 6.90173 7.59695C6.96424 7.65945 6.99936 7.74423 6.99936 7.83263V9.82498C6.99922 9.86884 7.00774 9.91229 7.02443 9.95285C7.04112 9.99341 7.06565 10.0303 7.09661 10.0613C7.12758 10.0924 7.16436 10.117 7.20487 10.1339C7.24538 10.1507 7.28881 10.1593 7.33266 10.1593L9.66623 10.1658C9.75463 10.1658 9.83941 10.1307 9.90192 10.0682C9.96443 10.0057 9.99954 9.92088 9.99954 9.83248V6.41607L6.15963 3.25507C6.11449 3.21868 6.05825 3.19884 6.00027 3.19884C5.94228 3.19884 5.88605 3.21868 5.8409 3.25507ZM11.9077 5.40511L10.1662 3.9696V1.08419C10.1662 1.01789 10.1399 0.954311 10.093 0.907431C10.0461 0.86055 9.98251 0.834213 9.91621 0.834213H8.74964C8.68334 0.834213 8.61976 0.86055 8.57288 0.907431C8.52599 0.954311 8.49966 1.01789 8.49966 1.08419V2.59679L6.63459 1.06232C6.45561 0.915036 6.23102 0.834508 5.99923 0.834508C5.76743 0.834508 5.54284 0.915036 5.36386 1.06232L0.0907219 5.40511C0.0654088 5.42603 0.0444661 5.45174 0.0290907 5.48076C0.0137152 5.50977 0.00420817 5.54154 0.00111286 5.57423C-0.00198244 5.60693 0.00139461 5.63991 0.0110511 5.6713C0.0207075 5.70269 0.0364541 5.73187 0.0573911 5.75717L0.5886 6.40295C0.60948 6.42834 0.635163 6.44936 0.664177 6.46481C0.693192 6.48026 0.724969 6.48984 0.75769 6.49299C0.79041 6.49615 0.823431 6.49282 0.854863 6.48319C0.886295 6.47357 0.91552 6.45784 0.940865 6.43691L5.8409 2.40097C5.88605 2.36458 5.94228 2.34474 6.00027 2.34474C6.05825 2.34474 6.11449 2.36458 6.15963 2.40097L11.0599 6.43691C11.0852 6.45784 11.1144 6.47359 11.1457 6.48325C11.1771 6.4929 11.2101 6.49628 11.2428 6.49318C11.2755 6.49009 11.3073 6.48058 11.3363 6.46521C11.3653 6.44983 11.391 6.42889 11.4119 6.40358L11.9431 5.75779C11.9641 5.73235 11.9797 5.70302 11.9893 5.67149C11.9988 5.63996 12.002 5.60686 11.9987 5.57409C11.9955 5.54132 11.9857 5.50952 11.9701 5.48052C11.9545 5.45152 11.9333 5.42589 11.9077 5.40511Z" fill="black"/>
</svg>
