<svg width="12" height="12" viewBox="0 0 12 12" fill="none" xmlns="http://www.w3.org/2000/svg">
  <path d="M6 0C2.6865 0 0 2.6865 0 6C0 9.3135 2.6865 12 6 12C9.3135 12 12 9.3135 12 6C12 2.6865 9.3135 0 6 0ZM6.707 6C6.707 6 8.2765 7.5695 8.3535 7.6465C8.549 7.842 8.549 8.1585 8.3535 8.3535C8.158 8.549 7.8415 8.549 7.6465 8.3535C7.5695 8.277 6 6.707 6 6.707C6 6.707 4.4305 8.2765 4.3535 8.3535C4.158 8.549 3.8415 8.549 3.6465 8.3535C3.451 8.158 3.451 7.8415 3.6465 7.6465C3.723 7.5695 5.293 6 5.293 6C5.293 6 3.7235 4.4305 3.6465 4.3535C3.451 4.158 3.451 3.8415 3.6465 3.6465C3.842 3.451 4.1585 3.451 4.3535 3.6465C4.4305 3.723 6 5.293 6 5.293C6 5.293 7.5695 3.7235 7.6465 3.6465C7.842 3.451 8.1585 3.451 8.3535 3.6465C8.549 3.842 8.549 4.1585 8.3535 4.3535C8.277 4.4305 6.707 6 6.707 6Z" fill="currentColor" />
</svg>