<svg version="1.1" xmlns="http://www.w3.org/2000/svg" xmlns:xlink="http://www.w3.org/1999/xlink" viewBox="0 0 172 172"><g fill="none" fill-rule="nonzero" stroke="none" stroke-width="1" stroke-linecap="butt" stroke-linejoin="miter" stroke-miterlimit="10" stroke-dasharray="" stroke-dashoffset="0" font-family="none" font-weight="none" font-size="none" text-anchor="none" style="mix-blend-mode: normal"><path d="M0,172v-172h172v172z" fill="none"></path><g fill="#000000"><path d="M17.2,28.66667c-3.1648,0 -5.73333,2.56853 -5.73333,5.73333v91.73333c0,2.67173 1.86799,4.81699 4.34479,5.45339l35.78854,10.33567v-103.45755l-32.13802,-9.41745c-0.7568,-0.2408 -1.45931,-0.38073 -2.26198,-0.38073zM108.93333,29.73047l-45.86667,9.24948v103.1888l45.86667,-9.15989zM120.4,30.1v103.44636l32.57474,9.41745c0.57907,0.19493 1.17739,0.36953 1.82526,0.36953c3.1648,0 5.73333,-2.56853 5.73333,-5.73333v-91.73333c0,-2.72333 -1.95077,-4.70178 -4.47917,-5.47578z"></path></g></g></svg>