<svg width="12" height="13" viewBox="0 0 12 13" fill="none" xmlns="http://www.w3.org/2000/svg">
<path d="M11.6424 7.20586H6.40812L9.89406 10.6918C10.0273 10.825 10.2466 10.8358 10.3835 10.7068C11.2372 9.90254 11.8244 8.81835 11.9967 7.59961C12.0263 7.39093 11.8531 7.20586 11.6424 7.20586ZM11.2932 5.77645C11.1115 3.14131 9.00575 1.03558 6.37062 0.853819C6.16944 0.839922 6.00003 1.00955 6.00003 1.21117V6.14704H10.9361C11.1377 6.14704 11.3071 5.97763 11.2932 5.77645ZM4.94121 7.20586V1.97154C4.94121 1.76088 4.75614 1.58771 4.54768 1.61727C1.91894 1.98874 -0.0903927 4.28528 0.00313644 7.03755C0.0993126 9.86416 2.53305 12.1821 5.36099 12.1466C6.47275 12.1327 7.50002 11.7744 8.34465 11.1753C8.51892 11.0518 8.53039 10.7953 8.37929 10.6442L4.94121 7.20586Z" fill="black"/>
</svg>
