<svg width="10" height="13" viewBox="0 0 10 13" fill="none" xmlns="http://www.w3.org/2000/svg">
<path d="M6.37525 2.75009C6.9966 2.75009 7.50029 2.2464 7.50029 1.62504C7.50029 1.00369 6.9966 0.5 6.37525 0.5C5.7539 0.5 5.25021 1.00369 5.25021 1.62504C5.25021 2.2464 5.7539 2.75009 6.37525 2.75009ZM2.66471 7.94099L2.31782 8.75009H0.750029C0.335872 8.75009 0 9.08596 0 9.50012C0 9.91427 0.335872 10.2501 0.750029 10.2501H2.56533C3.01652 10.2501 3.42271 9.98201 3.5992 9.56832L3.80523 9.08737L3.55514 8.9397C3.14919 8.69993 2.85058 8.34507 2.66471 7.94099ZM9.00035 5.74997H7.96836L7.35755 4.50187C7.06457 3.90302 6.52666 3.46519 5.90953 3.30792L4.24353 2.81243C3.58022 2.65305 2.88949 2.79954 2.34876 3.21417L1.41896 3.92693C1.09012 4.17889 1.02777 4.64954 1.28021 4.97838C1.53264 5.30722 2.00305 5.36886 2.33165 5.11713L3.26192 4.40437C3.4417 4.26632 3.67069 4.21686 3.85421 4.26046L4.19876 4.36288L3.32075 6.41117C3.02496 7.10213 3.29005 7.91146 3.93718 8.29351L5.92898 9.46941L5.28513 11.5257C5.16137 11.9208 5.38146 12.3416 5.77663 12.4653C5.8514 12.4887 5.92687 12.5 6.00117 12.5C6.32017 12.5 6.61596 12.2944 6.71651 11.9738L7.4581 9.60512C7.59662 9.11831 7.39037 8.59539 6.9509 8.33031L5.51553 7.48324L6.24938 5.64848L6.72448 6.61954C6.91199 7.00252 7.30857 7.24979 7.73491 7.24979H9.00035C9.41451 7.24979 9.75038 6.91392 9.75038 6.49977C9.75038 6.08561 9.41451 5.74997 9.00035 5.74997Z" fill="black"/>
</svg>
