<svg version="1.1" xmlns="http://www.w3.org/2000/svg" xmlns:xlink="http://www.w3.org/1999/xlink" viewBox="0 0 172 172">
  <g fill="none" fill-rule="nonzero" stroke="none" stroke-width="1" stroke-linecap="butt" stroke-linejoin="miter" stroke-miterlimit="10" stroke-dasharray="" stroke-dashoffset="0" font-family="none" font-weight="none" font-size="none" text-anchor="none" style="mix-blend-mode: normal">
    <path d="M0,172v-172h172v172z" fill="none"></path>
    <g fill="currentColor">
      <path d="M74.53333,17.2c-3.1648,0 -5.73333,2.56853 -5.73333,5.73333v17.2v11.46667c0,3.1648 -2.56853,5.73333 -5.73333,5.73333c-3.1648,0 -5.73333,-2.56853 -5.73333,-5.73333v-16.61771c-23.6672,10.87613 -40.13333,34.72931 -40.13333,62.48438v17.2h-2.86667c-4.7472,0 -8.6,3.8528 -8.6,8.6c0,3.26466 1.8419,6.07971 4.52396,7.5362l-0.0224,0.0112c0,0 18.43177,12.51927 35.63177,12.51927h80.26667c17.2,0 35.63177,-12.51927 35.63177,-12.51927l-0.02239,-0.0112c2.68205,-1.45649 4.52396,-4.27154 4.52396,-7.5362c0,-4.7472 -3.8528,-8.6 -8.6,-8.6h-111.8c-3.1648,0 -5.73333,-2.56853 -5.73333,-5.73333c0,-3.1648 2.56853,-5.73333 5.73333,-5.73333h108.93333v-5.73333c0,-27.75507 -16.46613,-51.60824 -40.13333,-62.48437v16.61771c0,3.1648 -2.56853,5.73333 -5.73333,5.73333c-3.1648,0 -5.73333,-2.56853 -5.73333,-5.73333v-20.68255v-7.98411c0,-3.1648 -2.56853,-5.73333 -5.73333,-5.73333z"></path>
    </g>
  </g>
</svg>