<svg width="736" height="650" viewBox="0 0 736 650" fill="none" xmlns="http://www.w3.org/2000/svg">
  <path d="M367.727 0L415.26 79.2435H446.948C464.456 79.2435 478.636 93.4281 478.636 110.941V206.033L514.967 169.692C521.015 163.627 530.751 163.498 536.97 169.305L537.371 169.692L555.593 187.92L637.078 174.336L623.497 255.846L641.72 274.072C647.783 280.121 647.912 289.86 642.107 296.081L641.72 296.482L557.855 380.369H637.078C645.824 380.369 652.922 387.469 652.922 396.218L652.92 423.951L700.455 459.612L652.92 495.274L652.922 523.007C652.922 531.756 645.824 538.856 637.078 538.856L542.013 538.856L510.325 602.251L383.571 510.257V633.948C383.571 642.532 376.739 649.528 368.221 649.789L367.727 649.797C358.981 649.797 351.883 642.697 351.883 633.948V510.255L225.13 602.251L193.442 538.856L98.3767 538.856C89.7957 538.856 82.801 532.021 82.5401 523.501L82.5325 523.007L82.5325 495.272L35 459.612L82.5325 423.953L82.5325 396.218C82.5325 387.634 89.3654 380.637 97.8834 380.376L98.3767 380.369H177.597L93.7343 296.482C87.5392 290.285 87.5392 280.253 93.7343 274.072L111.955 255.846L98.3766 174.336L179.861 187.92L198.084 169.692C204.279 163.495 214.308 163.495 220.488 169.692L256.816 206.033L256.818 110.941C256.818 93.6366 270.663 79.5817 287.883 79.2495L288.506 79.2435H320.195L367.727 0Z" fill="#E93731" />
  <path d="M0 344.559C0 360.516 2.74978 374.774 8.24935 387.334C13.7489 399.894 21.4265 410.559 31.2823 419.33C41.138 428.101 52.6842 434.78 65.9208 439.366C79.1575 443.953 93.4884 446.246 108.913 446.246C117.8 446.246 126.202 445.623 134.119 444.378C142.035 443.133 149.06 441.492 155.193 439.457C161.325 437.421 166.109 435.206 169.543 432.811L170.941 379.302H164.579C162.047 391.231 158.251 401.497 153.189 410.1C148.127 418.703 142.026 425.333 134.885 429.991C127.745 434.649 119.822 436.978 111.119 436.978C101.761 436.978 93.4849 434.456 86.2892 429.413C79.0935 424.37 73.0215 417.484 68.0732 408.756C63.1249 400.028 59.3902 390.037 56.8689 378.784C54.3475 367.53 53.0869 355.692 53.0869 343.271C53.0869 325.201 55.3994 309.425 60.0245 295.944C64.6496 282.462 71.2683 271.979 79.8806 264.494C88.4929 257.01 98.7584 253.268 110.677 253.268C120.077 253.268 128.357 255.704 135.519 260.575C142.681 265.447 148.688 272.132 153.541 280.632C158.393 289.131 161.93 298.84 164.151 309.758H170.513L169.114 256.423C163.622 252.753 155.712 249.765 145.384 247.459C135.056 245.153 122.728 244 108.4 244C93.3511 244 79.2797 246.193 66.1859 250.579C53.0922 254.966 41.5826 261.431 31.6572 269.976C21.7318 278.521 13.9742 289.031 8.38453 301.506C2.79484 313.981 0 328.332 0 344.559Z" fill="black" />
  <path d="M354.939 298.761C354.898 283.097 348.093 270.57 334.523 261.182C320.954 251.794 300.15 247.099 272.112 247.099H185.609V253.76C190.744 254.65 194.601 255.721 197.181 256.972C199.762 258.224 201.513 260.02 202.434 262.362C203.356 264.704 203.817 267.957 203.817 272.121V418.125C203.817 422.142 203.356 425.309 202.434 427.626C201.513 429.943 199.762 431.739 197.181 433.015C194.601 434.291 190.744 435.448 185.609 436.486V443.147H268.872V436.486C264.188 435.58 260.61 434.5 258.136 433.244C255.663 431.988 253.986 430.259 253.105 428.057C252.224 425.855 251.784 422.858 251.784 419.065V352.764H274.125L315.451 443.147H370.743V436.757C368.204 435.818 365.743 434.376 363.36 432.43C360.976 430.484 358.297 427.171 355.32 422.491C352.344 417.811 348.647 411.027 344.228 402.137L313.233 336.061V344.147C321.105 342.71 328.199 339.987 334.515 335.977C340.831 331.967 345.824 326.809 349.495 320.503C353.165 314.196 354.98 306.949 354.939 298.761ZM307.395 301.283C307.395 314.772 303.448 325.234 295.556 332.667C287.663 340.101 277.287 344.086 264.428 344.62L251.784 345.115V254.823L262.296 255.169C272.722 255.622 281.261 257.873 287.913 261.924C294.564 265.975 299.474 271.39 302.642 278.169C305.811 284.947 307.395 292.652 307.395 301.283Z" fill="black" />
  <path d="M524.046 247.099H377.699V253.76C382.833 254.699 386.691 255.807 389.271 257.083C391.852 258.36 393.603 260.169 394.524 262.51C395.446 264.851 395.907 268.055 395.907 272.121V418.125C395.907 422.191 395.446 425.395 394.524 427.736C393.603 430.077 391.852 431.886 389.271 433.163C386.691 434.439 382.833 435.547 377.699 436.486V443.147H463.581V436.486C458.078 435.629 453.911 434.484 451.081 433.051C448.25 431.619 446.341 429.565 445.354 426.89C444.367 424.215 443.874 420.619 443.874 416.101V348.651L467.501 349.34C473.204 349.564 477.654 350.626 480.851 352.528C484.047 354.429 486.525 357.427 488.283 361.522C490.042 365.617 491.548 371.121 492.802 378.034H498.771V311.483H492.802C491.45 318.402 489.905 323.92 488.167 328.035C486.43 332.151 483.975 335.147 480.803 337.025C477.631 338.902 473.197 339.972 467.501 340.235L443.874 340.927V254.823L464.555 255.786C473.575 256.273 481.176 257.329 487.357 258.956C493.538 260.582 498.669 263.06 502.748 266.39C506.828 269.72 510.185 274.153 512.819 279.689C515.454 285.225 517.689 292.129 519.523 300.403H525.888L524.046 247.099Z" fill="black" />
  <path d="M735.914 341.852C735.914 321.323 730.894 304.021 720.853 289.946C710.812 275.872 696.747 265.212 678.659 257.967C660.57 250.722 639.374 247.099 615.069 247.099H535.224V253.76C540.358 254.699 544.216 255.807 546.796 257.083C549.377 258.36 551.128 260.169 552.049 262.51C552.971 264.851 553.432 268.055 553.432 272.121V418.125C553.432 422.191 552.971 425.395 552.049 427.736C551.128 430.077 549.377 431.886 546.796 433.163C544.216 434.439 540.358 435.547 535.224 436.486V443.147H616.252C632.682 443.147 648.112 440.913 662.542 436.444C676.971 431.976 689.688 425.424 700.692 416.788C711.696 408.152 720.317 397.551 726.556 384.986C732.795 372.422 735.914 358.043 735.914 341.852ZM682.976 344.941C682.976 363.114 680.078 378.858 674.282 392.174C668.487 405.489 660.19 415.852 649.391 423.261C638.592 430.67 625.63 434.629 610.507 435.139L601.399 435.423V254.823L610.507 255.107C626.016 255.567 639.16 259.652 649.939 267.363C660.718 275.073 668.931 285.578 674.578 298.878C680.226 312.179 683.025 327.533 682.976 344.941Z" fill="black" />
</svg>