<svg width="944" height="944" viewBox="0 0 944 944" fill="none" xmlns="http://www.w3.org/2000/svg">
  <path d="M472 933.904C727.102 933.904 933.904 727.102 933.904 472C933.904 216.898 727.102 10.0963 472 10.0963C216.898 10.0963 10.0962 216.898 10.0962 472C10.0962 727.102 216.898 933.904 472 933.904Z" fill="#E93731" stroke="white" stroke-width="20" />
  <g style="mix-blend-mode:lighten" opacity="0.153739">
    <path d="M472 122.31L519.532 201.554H551.221C568.729 201.554 582.909 215.738 582.909 233.251V328.343L619.24 292.002C625.287 285.937 635.023 285.808 641.243 291.615L641.643 292.002L659.866 310.23L741.351 296.646L727.77 378.156L745.993 396.382C752.056 402.431 752.185 412.17 746.38 418.391L745.993 418.792L662.128 502.679H741.351C750.097 502.679 757.195 509.779 757.195 518.528L757.193 546.261L804.727 581.923L757.193 617.584L757.195 645.317C757.195 654.066 750.097 661.166 741.351 661.166L646.286 661.166L614.597 724.561L487.844 632.567V756.258C487.844 764.842 481.011 771.838 472.493 772.099L472 772.107C463.254 772.107 456.156 765.007 456.156 756.258V632.565L329.403 724.561L297.714 661.166L202.649 661.166C194.068 661.166 187.074 654.331 186.813 645.811L186.805 645.317L186.805 617.582L139.273 581.923L186.805 546.263L186.805 518.528C186.805 509.944 193.638 502.948 202.156 502.687L202.649 502.679H281.87L198.007 418.792C191.812 412.595 191.812 402.563 198.007 396.382L216.228 378.156L202.649 296.646L284.134 310.23L302.357 292.002C308.552 285.805 318.581 285.805 324.76 292.002L361.089 328.343L361.091 233.251C361.091 215.947 374.936 201.892 392.155 201.56L392.779 201.554H424.467L472 122.31Z" fill="white" />
  </g>
  <path d="M107.957 466.869C107.957 482.826 110.707 497.084 116.207 509.644C121.706 522.204 129.384 532.869 139.24 541.64C149.095 550.411 160.641 557.09 173.878 561.677C187.115 566.263 201.446 568.556 216.871 568.556C225.758 568.556 234.159 567.934 242.076 566.688C249.993 565.443 257.017 563.803 263.15 561.767C269.282 559.731 274.066 557.516 277.5 555.122L278.899 501.612H272.537C270.005 513.542 266.208 523.808 261.146 532.41C256.085 541.013 249.983 547.643 242.843 552.301C235.702 556.959 227.78 559.288 219.076 559.288C209.719 559.288 201.442 556.766 194.246 551.723C187.051 546.68 180.979 539.794 176.03 531.066C171.082 522.338 167.347 512.348 164.826 501.094C162.305 489.84 161.044 478.002 161.044 465.581C161.044 447.511 163.357 431.736 167.982 418.254C172.607 404.772 179.226 394.289 187.838 386.805C196.45 379.32 206.716 375.578 218.634 375.578C228.034 375.578 236.314 378.014 243.476 382.885C250.638 387.757 256.645 394.442 261.498 402.942C266.351 411.441 269.887 421.15 272.108 432.068H278.47L277.072 378.733C271.58 375.063 263.67 372.075 253.342 369.769C243.013 367.463 230.685 366.31 216.357 366.31C201.308 366.31 187.237 368.503 174.143 372.89C161.049 377.276 149.54 383.741 139.614 392.286C129.689 400.831 121.931 411.341 116.342 423.816C110.752 436.291 107.957 450.642 107.957 466.869Z" fill="white" />
  <path d="M462.896 421.071C462.856 405.407 456.05 392.88 442.481 383.492C428.911 374.104 408.107 369.409 380.069 369.409H293.567V376.071C298.701 376.96 302.558 378.031 305.139 379.282C307.719 380.534 309.47 382.331 310.392 384.673C311.313 387.015 311.774 390.267 311.774 394.431V540.435C311.774 544.452 311.313 547.619 310.392 549.936C309.47 552.253 307.719 554.05 305.139 555.325C302.558 556.601 298.701 557.758 293.567 558.796V565.457H376.829V558.796C372.145 557.891 368.567 556.81 366.094 555.554C363.62 554.298 361.943 552.57 361.062 550.368C360.181 548.166 359.741 545.168 359.741 541.375V475.074H382.082L423.408 565.457H478.7V559.067C476.161 558.128 473.7 556.686 471.317 554.74C468.933 552.794 466.254 549.481 463.278 544.801C460.301 540.121 456.604 533.337 452.185 524.447L421.19 458.371V466.457C429.062 465.02 436.156 462.297 442.472 458.287C448.788 454.277 453.782 449.119 457.452 442.813C461.122 436.507 462.937 429.259 462.896 421.071ZM415.352 423.593C415.352 437.082 411.406 447.544 403.513 454.978C395.62 462.412 385.244 466.396 372.385 466.93L359.741 467.425V377.133L370.254 377.479C380.68 377.932 389.218 380.183 395.87 384.235C402.521 388.286 407.431 393.7 410.599 400.479C413.768 407.257 415.352 414.962 415.352 423.593Z" fill="white" />
  <path d="M632.003 369.409H485.657V376.071C490.791 377.01 494.648 378.117 497.229 379.394C499.809 380.67 501.56 382.479 502.482 384.82C503.403 387.161 503.864 390.365 503.864 394.431V540.435C503.864 544.501 503.403 547.705 502.482 550.046C501.56 552.387 499.809 554.196 497.229 555.473C494.648 556.749 490.791 557.857 485.657 558.796V565.457H571.538V558.796C566.035 557.939 561.868 556.794 559.038 555.361C556.208 553.929 554.299 551.875 553.312 549.2C552.325 546.525 551.831 542.929 551.831 538.412V470.961L575.459 471.65C581.162 471.874 585.611 472.936 588.808 474.838C592.004 476.739 594.482 479.737 596.241 483.832C598 487.927 599.506 493.431 600.759 500.344H606.728V433.793H600.759C599.407 440.713 597.862 446.23 596.125 450.346C594.387 454.461 591.932 457.457 588.76 459.335C585.588 461.212 581.155 462.282 575.459 462.546L551.831 463.237V377.133L572.512 378.096C581.533 378.583 589.134 379.639 595.315 381.266C601.496 382.892 606.626 385.37 610.706 388.7C614.785 392.03 618.142 396.463 620.777 401.999C623.411 407.535 625.646 414.439 627.481 422.713H633.845L632.003 369.409Z" fill="white" />
  <path d="M843.872 464.162C843.872 443.633 838.851 426.331 828.81 412.257C818.77 398.182 804.705 387.522 786.616 380.277C768.528 373.032 747.331 369.409 723.026 369.409H643.182V376.071C648.316 377.01 652.173 378.117 654.754 379.394C657.334 380.67 659.085 382.479 660.007 384.82C660.928 387.161 661.389 390.365 661.389 394.431V540.435C661.389 544.501 660.928 547.705 660.007 550.046C659.085 552.387 657.334 554.196 654.754 555.473C652.173 556.749 648.316 557.857 643.182 558.796V565.457H724.209C740.64 565.457 756.07 563.223 770.499 558.754C784.928 554.286 797.645 547.734 808.649 539.098C819.653 530.462 828.275 519.861 834.513 507.297C840.752 494.732 843.872 480.354 843.872 464.162ZM790.933 467.251C790.933 485.424 788.035 501.168 782.24 514.484C776.445 527.8 768.147 538.162 757.348 545.571C746.549 552.98 733.588 556.94 718.464 557.449L709.356 557.733V377.133L718.464 377.418C733.973 377.877 747.118 381.962 757.896 389.673C768.675 397.383 776.888 407.888 782.536 421.189C788.183 434.489 790.982 449.843 790.933 467.251Z" fill="white" />
</svg>