<svg width="1024" height="1024" viewBox="0 0 1024 1024" fill="none" xmlns="http://www.w3.org/2000/svg">
  <path d="M512 973.904C767.102 973.904 973.904 767.102 973.904 512C973.904 256.898 767.102 50.0963 512 50.0963C256.898 50.0963 50.0963 256.898 50.0963 512C50.0963 767.102 256.898 973.904 512 973.904Z" fill="#E93731" stroke="white" stroke-width="20" />
  <path d="M512 1000C781.515 1000 1000 781.515 1000 512C1000 242.485 781.515 24 512 24C242.485 24 24 242.485 24 512C24 781.515 242.485 1000 512 1000Z" stroke="#1B1C56" stroke-width="20" />
  <g style="mix-blend-mode:lighten" opacity="0.153739">
    <path d="M512 162.31L559.532 241.554H591.221C608.729 241.554 622.909 255.738 622.909 273.251V368.343L659.24 332.002C665.287 325.937 675.023 325.808 681.243 331.615L681.643 332.002L699.866 350.23L781.351 336.646L767.77 418.156L785.993 436.382C792.056 442.431 792.185 452.17 786.38 458.391L785.993 458.792L702.128 542.679H781.351C790.097 542.679 797.195 549.779 797.195 558.528L797.193 586.261L844.727 621.923L797.193 657.584L797.195 685.317C797.195 694.066 790.097 701.166 781.351 701.166L686.286 701.166L654.597 764.561L527.844 672.567V796.258C527.844 804.842 521.011 811.838 512.493 812.099L512 812.107C503.254 812.107 496.156 805.007 496.156 796.258V672.565L369.403 764.561L337.714 701.166L242.649 701.166C234.068 701.166 227.074 694.331 226.813 685.811L226.805 685.317L226.805 657.582L179.273 621.923L226.805 586.263L226.805 558.528C226.805 549.944 233.638 542.948 242.156 542.687L242.649 542.679H321.87L238.007 458.792C231.812 452.595 231.812 442.563 238.007 436.382L256.228 418.156L242.649 336.646L324.134 350.23L342.357 332.002C348.552 325.805 358.581 325.805 364.76 332.002L401.089 368.343L401.091 273.251C401.091 255.947 414.936 241.892 432.155 241.56L432.779 241.554H464.467L512 162.31Z" fill="white" />
  </g>
  <path d="M147.957 506.869C147.957 522.826 150.707 537.084 156.207 549.644C161.706 562.204 169.384 572.869 179.239 581.64C189.095 590.411 200.641 597.09 213.878 601.677C227.115 606.263 241.446 608.556 256.871 608.556C265.757 608.556 274.159 607.934 282.076 606.688C289.993 605.443 297.017 603.803 303.15 601.767C309.282 599.731 314.066 597.516 317.5 595.122L318.899 541.612H312.537C310.005 553.542 306.208 563.808 301.146 572.41C296.085 581.013 289.983 587.643 282.843 592.301C275.702 596.959 267.78 599.288 259.076 599.288C249.719 599.288 241.442 596.766 234.246 591.723C227.051 586.68 220.979 579.794 216.03 571.066C211.082 562.339 207.347 552.348 204.826 541.094C202.305 529.84 201.044 518.002 201.044 505.581C201.044 487.512 203.357 471.736 207.982 458.254C212.607 444.772 219.226 434.289 227.838 426.805C236.45 419.32 246.716 415.578 258.634 415.578C268.034 415.578 276.314 418.014 283.476 422.885C290.638 427.757 296.645 434.442 301.498 442.942C306.35 451.441 309.887 461.15 312.108 472.068H318.47L317.071 418.733C311.58 415.063 303.67 412.075 293.342 409.769C283.013 407.463 270.685 406.31 256.357 406.31C241.308 406.31 227.237 408.503 214.143 412.89C201.049 417.276 189.54 423.741 179.614 432.286C169.689 440.831 161.931 451.341 156.342 463.816C150.752 476.291 147.957 490.642 147.957 506.869Z" fill="white" />
  <path d="M502.896 461.071C502.855 445.407 496.05 432.881 482.48 423.492C468.911 414.104 448.107 409.409 420.069 409.409H333.567V416.071C338.701 416.96 342.558 418.031 345.138 419.282C347.719 420.534 349.47 422.331 350.392 424.673C351.313 427.015 351.774 430.267 351.774 434.431V580.435C351.774 584.452 351.313 587.619 350.392 589.936C349.47 592.253 347.719 594.05 345.138 595.325C342.558 596.601 338.701 597.758 333.567 598.796V605.457H416.829V598.796C412.145 597.891 408.567 596.81 406.093 595.554C403.62 594.299 401.943 592.57 401.062 590.368C400.181 588.166 399.741 585.168 399.741 581.375V515.074H422.082L463.408 605.457H518.7V599.067C516.161 598.128 513.7 596.686 511.317 594.74C508.933 592.794 506.254 589.481 503.278 584.801C500.301 580.121 496.604 573.337 492.185 564.447L461.19 498.371V506.457C469.062 505.02 476.156 502.297 482.472 498.287C488.788 494.277 493.782 489.119 497.452 482.813C501.122 476.507 502.937 469.259 502.896 461.071ZM455.352 463.593C455.352 477.082 451.406 487.544 443.513 494.978C435.62 502.412 425.244 506.396 412.385 506.93L399.741 507.425V417.133L410.254 417.479C420.68 417.932 429.218 420.183 435.87 424.235C442.521 428.286 447.431 433.7 450.599 440.479C453.768 447.257 455.352 454.962 455.352 463.593Z" fill="white" />
  <path d="M672.003 409.409H525.657V416.071C530.791 417.01 534.648 418.117 537.228 419.394C539.809 420.67 541.56 422.479 542.482 424.82C543.403 427.161 543.864 430.365 543.864 434.431V580.435C543.864 584.501 543.403 587.705 542.482 590.046C541.56 592.388 539.809 594.196 537.228 595.473C534.648 596.749 530.791 597.857 525.657 598.796V605.457H611.538V598.796C606.035 597.939 601.868 596.794 599.038 595.361C596.207 593.929 594.299 591.875 593.312 589.2C592.324 586.525 591.831 582.929 591.831 578.412V510.961L615.458 511.65C621.161 511.874 625.611 512.936 628.808 514.838C632.004 516.739 634.482 519.737 636.241 523.832C637.999 527.927 639.506 533.431 640.759 540.344H646.728V473.793H640.759C639.407 480.713 637.862 486.23 636.125 490.346C634.387 494.461 631.932 497.457 628.76 499.335C625.588 501.212 621.154 502.283 615.458 502.546L591.831 503.237V417.133L612.512 418.096C621.532 418.583 629.133 419.639 635.314 421.266C641.496 422.892 646.626 425.37 650.705 428.7C654.785 432.03 658.142 436.463 660.776 441.999C663.411 447.535 665.646 454.44 667.481 462.713H673.845L672.003 409.409Z" fill="white" />
  <path d="M883.872 504.162C883.872 483.633 878.851 466.331 868.81 452.257C858.769 438.182 844.705 427.522 826.616 420.277C808.528 413.032 787.331 409.409 763.026 409.409H683.182V416.071C688.316 417.01 692.173 418.117 694.753 419.394C697.334 420.67 699.085 422.479 700.007 424.82C700.928 427.161 701.389 430.365 701.389 434.431V580.435C701.389 584.501 700.928 587.705 700.007 590.046C699.085 592.388 697.334 594.196 694.753 595.473C692.173 596.749 688.316 597.857 683.182 598.796V605.457H764.209C780.639 605.457 796.069 603.223 810.499 598.754C824.928 594.286 837.645 587.734 848.649 579.098C859.653 570.462 868.275 559.861 874.513 547.297C880.752 534.732 883.872 520.354 883.872 504.162ZM830.933 507.251C830.933 525.424 828.035 541.168 822.24 554.484C816.444 567.8 808.147 578.162 797.348 585.571C786.549 592.98 773.587 596.94 758.464 597.449L749.356 597.733V417.133L758.464 417.418C773.973 417.877 787.117 421.962 797.896 429.673C808.675 437.383 816.888 447.888 822.535 461.189C828.183 474.489 830.982 489.843 830.933 507.251Z" fill="white" />
</svg>